<svg xmlns="http://www.w3.org/2000/svg" version="1.1" xmlns:xlink="http://www.w3.org/1999/xlink" xmlns:svgjs="http://svgjs.dev/svgjs" width="2000" height="717" viewBox="0 0 2000 717"><g transform="matrix(1,0,0,1,-1.2121212121212466,-1.2883157056365349)"><svg viewBox="0 0 396 142" data-background-color="#ffffff" preserveAspectRatio="xMidYMid meet" height="717" width="2000" xmlns="http://www.w3.org/2000/svg" xmlns:xlink="http://www.w3.org/1999/xlink"><g id="tight-bounds" transform="matrix(1,0,0,1,0.2400000000000091,0.25514760139523673)"><svg viewBox="0 0 395.52 141.48970479720953" height="141.48970479720953" width="395.52"><g><svg viewBox="0 0 395.52 141.48970479720953" height="141.48970479720953" width="395.52"><g><svg viewBox="0 0 395.52 141.48970479720953" height="141.48970479720953" width="395.52"><g id="textblocktransform"><svg viewBox="0 0 395.52 141.48970479720953" height="141.48970479720953" width="395.52" id="textblock"><g><svg viewBox="0 0 395.52 100.569105303971" height="100.569105303971" width="395.52"><g transform="matrix(1,0,0,1,0,0)"><svg width="395.52" viewBox="2.3416666666699997 -34.8 139.99833333333 35.599999999999994" height="100.569105303971" data-palette-color="#6575a8"><path d="M14.35 0.4L10.35 0.4Q9.55 0.4 9.2-0.73 8.85-1.85 8.85-3.2L8.85-3.2Q8.85-4.55 9.03-6.23 9.2-7.9 9.55-10.8L9.55-10.8 11.7-29.8 5-28.35Q4.4-28.25 3.98-28.18 3.55-28.1 3.35-28.1L3.35-28.1Q2.8-28.1 2.55-28.45 2.3-28.8 2.35-29.3L2.35-29.3Q2.4-30.55 2.73-31.6 3.05-32.65 3.55-33.33 4.05-34 4.65-34L4.65-34 15.4-34Q19.25-34 21.43-34.15 23.6-34.3 24.68-34.43 25.75-34.55 26.3-34.55L26.3-34.55Q26.8-34.55 27-34.35 27.2-34.15 27.25-33.55L27.25-33.55Q27.3-32.55 26.98-31.45 26.65-30.35 26.13-29.58 25.6-28.8 25.05-28.8L25.05-28.8Q24.7-28.8 24-28.93 23.3-29.05 22.4-29.15L22.4-29.15 17.65-29.8 14.35 0.4ZM30.4-1.2L30.4-1.2 29.2-8.75Q31.05-13.55 32.97-17.07 34.9-20.6 36.9-22.55 38.9-24.5 40.95-24.5L40.95-24.5Q42.1-24.5 42.6-23.78 43.1-23.05 43.1-21.95L43.1-21.95Q43.1-20.95 42.87-20.03 42.65-19.1 42.22-18.5 41.8-17.9 41.2-17.9L41.2-17.9Q40.65-17.9 39.97-18.25 39.3-18.6 38.15-18.6L38.15-18.6Q37.4-18.6 36.25-17.05 35.1-15.5 33.87-12.93 32.65-10.35 31.7-7.28 30.75-4.2 30.4-1.2ZM26.2 0.7L26.2 0.7Q25.55 0.7 25.22 0.48 24.9 0.25 24.87-0.7 24.85-1.65 25.1-3.75L25.1-3.75 27.45-24.55 30.95-24.55Q31.7-24.55 32.3-23.45 32.9-22.35 32.9-20.95L32.9-20.95Q32.9-20.3 32.52-18.93 32.15-17.55 31.65-16.03 31.15-14.5 30.75-13.35L30.75-13.35 29.45-9.25 31.3-9.55 30.4-1.2Q30.35-0.7 29.8-0.33 29.25 0.05 28.52 0.28 27.8 0.5 27.15 0.6 26.5 0.7 26.2 0.7ZM47.49 0.8L47.49 0.8Q44.7 0.8 43.49-1.48 42.3-3.75 42.3-7.85L42.3-7.85Q42.3-11.5 43.37-14.55 44.45-17.6 46.3-19.83 48.14-22.05 50.59-23.28 53.05-24.5 55.8-24.5L55.8-24.5Q57.95-24.5 59.72-23.93 61.5-23.35 62.75-22.75L62.75-22.75 61.3-17.5Q59.95-18.4 58.27-19.15 56.59-19.9 55.17-20.33 53.74-20.75 53.05-20.75L53.05-20.75Q51.64-20.75 50.47-19.38 49.3-18 48.62-15.58 47.95-13.15 47.95-10L47.95-10Q47.95-7.1 48.37-5.6 48.8-4.1 49.74-4.1L49.74-4.1Q50.39-4.1 51.95-5.58 53.49-7.05 55.7-10.5 57.89-13.95 60.34-19.85L60.34-19.85 61.75-15.4Q59.05-9.4 56.59-5.85 54.14-2.3 51.89-0.75 49.64 0.8 47.49 0.8ZM62.95 0.5L59.45 0.5Q58.45 0.5 58.25-0.48 58.05-1.45 58.05-2.55L58.05-2.55Q58.05-3.4 58.27-4.65 58.5-5.9 58.84-7.35 59.2-8.8 59.59-10.2L59.59-10.2 60.7-13.95 59.25-15.25 60.45-22.8Q62.05-23.05 63.27-23.45 64.5-23.85 65.32-24.15 66.14-24.45 66.5-24.45L66.5-24.45Q67.05-24.45 67.05-23.85L67.05-23.85Q67.05-23.6 66.42-21.73 65.8-19.85 65.07-16.95 64.34-14.05 64-10.65L64-10.65 62.95 0.5ZM76.94 0.8L76.94 0.8Q74.84 0.8 73.57-0.78 72.29-2.35 71.99-5.35L71.99-5.35 70.89-16.55Q70.79-17.7 70.57-18.88 70.34-20.05 69.99-20.75L69.99-20.75Q69.64-21.45 69.39-21.73 69.14-22 69.14-22.4L69.14-22.4Q69.14-22.8 69.72-23.18 70.29-23.55 71.14-23.88 71.99-24.2 72.84-24.38 73.69-24.55 74.24-24.55L74.24-24.55Q75.14-24.55 75.69-23.6 76.24-22.65 76.54-19.85L76.54-19.85 77.84-7.15Q77.99-5.7 78.37-4.95 78.74-4.2 79.44-4.2L79.44-4.2Q79.99-4.2 80.97-4.9 81.94-5.6 82.97-7.25 83.99-8.9 84.69-11.65 85.39-14.4 85.39-18.5L85.39-18.5Q85.39-19.7 85.07-20.35 84.74-21 84.74-21.5L84.74-21.5Q84.74-21.95 85.29-22.5 85.84-23.05 86.67-23.5 87.49-23.95 88.32-24.25 89.14-24.55 89.64-24.55L89.64-24.55Q90.24-24.55 90.84-24.2 91.44-23.85 91.44-22.45L91.44-22.45Q91.44-20.05 90.74-16.98 90.04-13.9 88.77-10.8 87.49-7.7 85.69-5.05 83.89-2.4 81.69-0.8 79.49 0.8 76.94 0.8ZM96.79-13.95L103.39-14.25Q105.34-14.35 105.69-14.35 106.04-14.35 106.09-14.35L106.09-14.35Q106.69-14.35 106.84-14.13 106.99-13.9 106.99-13.5L106.99-13.5Q106.99-12.85 106.67-12.23 106.34-11.6 105.57-11.18 104.79-10.75 103.39-10.7L103.39-10.7 94.44-10.35Q94.39-10.35 94.37-10.35 94.34-10.35 94.29-10.35L94.29-10.35Q93.69-10.35 93.54-10.65 93.39-10.95 93.39-11.45L93.39-11.45Q93.39-12.2 94.17-13.05 94.94-13.9 96.79-13.95L96.79-13.95ZM118.39 0.8L118.39 0.8Q114.54 0.8 112.44-1.63 110.34-4.05 110.34-8.3L110.34-8.3Q110.34-11.85 111.34-14.8 112.34-17.75 114.14-19.95 115.94-22.15 118.36-23.35 120.79-24.55 123.64-24.55L123.64-24.55Q127.04-24.55 128.84-23.1 130.64-21.65 130.64-18.95L130.64-18.95Q130.64-16.2 128.81-14.15 126.99-12.1 123.56-10.65 120.14-9.2 115.39-8.2L115.39-8.2 114.74-11.2Q117.49-11.55 119.79-12.4 122.09-13.25 123.49-14.68 124.89-16.1 124.89-18.05L124.89-18.05Q124.89-19.4 124.36-20.1 123.84-20.8 122.49-20.8L122.49-20.8Q120.44-20.8 119.01-19.3 117.59-17.8 116.86-15.4 116.14-13 116.14-10.3L116.14-10.3Q116.14-6.65 117.26-5.43 118.39-4.2 120.59-4.2L120.59-4.2Q122.89-4.2 124.61-4.93 126.34-5.65 127.59-6.45L127.59-6.45Q127.99-6.7 128.29-6.85 128.59-7 128.79-7L128.79-7Q129.04-7 129.19-6.8 129.34-6.6 129.34-6.35L129.34-6.35Q129.34-5.45 128.54-4.25 127.74-3.05 126.26-1.9 124.79-0.75 122.79 0.03 120.79 0.8 118.39 0.8ZM138.99 0.7L135.49 0.7Q134.59 0.7 134.09-0.4 133.59-1.5 133.64-2.95L133.64-2.95Q133.69-4.65 133.94-7 134.19-9.35 134.44-11.65L134.44-11.65 135.84-23.45Q136.14-25.7 135.99-27.45 135.84-29.2 135.59-30.55 135.34-31.9 135.34-32.85L135.34-32.85Q135.34-33.4 136.21-33.83 137.09-34.25 138.24-34.52 139.39-34.8 140.19-34.8L140.19-34.8Q141.04-34.8 141.69-33.58 142.34-32.35 142.34-30.75L142.34-30.75Q142.34-30.4 142.24-28.8 142.14-27.2 141.84-25.15L141.84-25.15 140.24-13.65Q139.74-10.05 139.54-6.48 139.34-2.9 138.99 0.7L138.99 0.7Z" opacity="1" transform="matrix(1,0,0,1,0,0)" fill="#6575a8" class="wordmark-text-0" data-fill-palette-color="primary" id="text-0"></path></svg></g></svg></g><g transform="matrix(1,0,0,1,0,124.31105740771126)"><svg viewBox="0 0 232.209792 17.17864738949825" height="17.17864738949825" width="232.209792"><g transform="matrix(1,0,0,1,0,0)"><svg width="232.209792" viewBox="4.2 -38.1 642.68 47.550000000000004" height="17.17864738949825" data-palette-color="#6575a8"><path d="M20.95 0L4.2 0 4.2-34.85 10.55-34.85 10.55-5.5 20.95-5.5 20.95 0ZM36.05 0.65L36.05 0.65Q31.85 0.65 29.27-1.11 26.7-2.88 25.52-5.79 24.35-8.7 24.35-12.15L24.35-12.15Q24.35-15.78 25.68-18.81 27.02-21.85 29.61-23.68 32.2-25.5 35.95-25.5L35.95-25.5Q41.55-25.5 43.77-22.26 46-19.03 46-13.1L46-13.1Q46-12.58 45.97-11.78 45.95-10.98 45.9-10.4L45.9-10.4 30.9-10.4Q31.05-7.45 32.56-5.78 34.07-4.1 37.1-4.1L37.1-4.1Q38.65-4.1 40.42-4.79 42.2-5.48 43.05-6.45L43.05-6.45 45.05-1.7Q44.05-1.03 41.89-0.19 39.72 0.65 36.05 0.65ZM30.85-14.3L30.85-14.3 39.65-14.3Q39.65-16.93 39.19-18.31 38.72-19.7 37.92-20.23 37.12-20.75 36.1-20.75L36.1-20.75Q33.55-20.75 32.27-18.86 31-16.98 30.85-14.3ZM60.1 0.75L60.1 0.75Q55.87 0.75 54.38-1.45 52.9-3.65 52.9-8.1L52.9-8.1 52.9-19.65 49.65-19.65 49.65-24.9 53.15-24.9 53.5-30.15 58.95-32.5 58.95-24.9 65.1-24.9 65.1-19.65 58.95-19.65 58.95-8.25Q58.95-6.08 59.56-5.24 60.17-4.4 61.25-4.4L61.25-4.4Q62.35-4.4 63.57-4.98 64.8-5.55 65.5-6.15L65.5-6.15 66.7-1.1Q65.92-0.55 64.68-0.14 63.45 0.28 62.18 0.51 60.92 0.75 60.1 0.75ZM77.59-34.85L77.04-17.95 72.64-17.95 72.09-34.85 77.59-34.85ZM92.54 0.45L92.54 0.45Q89.82 0.45 88.08-0.06 86.34-0.58 85.38-1.24 84.42-1.9 84.04-2.35L84.04-2.35 85.89-7.1Q86.99-6.2 88.7-5.33 90.42-4.45 92.69-4.45L92.69-4.45Q94.47-4.45 95.18-5.18 95.89-5.9 95.89-6.75L95.89-6.75Q95.89-7.93 94.27-8.88 92.64-9.83 90.49-10.75L90.49-10.75Q89.22-11.3 87.79-12.15 86.37-13 85.35-14.4 84.34-15.8 84.34-18L84.34-18Q84.34-21.38 86.8-23.39 89.27-25.4 93.79-25.4L93.79-25.4Q96.69-25.4 98.7-24.54 100.72-23.68 101.39-23L101.39-23 99.69-18.5Q98.72-19.25 97.22-19.93 95.72-20.6 93.99-20.6L93.99-20.6Q92.09-20.6 91.34-20.1 90.59-19.6 90.59-18.5L90.59-18.5Q90.59-17.28 91.93-16.49 93.27-15.7 95.14-14.95L95.14-14.95Q98.27-13.73 100.18-11.94 102.09-10.15 102.09-7.4L102.09-7.4Q102.09-5.35 101.14-3.56 100.19-1.78 98.09-0.66 95.99 0.45 92.54 0.45ZM125.29 0.75L125.29 0.75Q121.06 0.75 119.57-1.45 118.09-3.65 118.09-8.1L118.09-8.1 118.09-19.65 114.84-19.65 114.84-24.9 118.34-24.9 118.69-30.15 124.14-32.5 124.14-24.9 130.29-24.9 130.29-19.65 124.14-19.65 124.14-8.25Q124.14-6.08 124.75-5.24 125.36-4.4 126.44-4.4L126.44-4.4Q127.54-4.4 128.76-4.98 129.99-5.55 130.69-6.15L130.69-6.15 131.89-1.1Q131.11-0.55 129.87-0.14 128.64 0.28 127.37 0.51 126.11 0.75 125.29 0.75ZM141.53 0.7L141.53 0.7Q139.23 0.7 137.72-0.33 136.21-1.35 135.47-3.05 134.73-4.75 134.73-6.8L134.73-6.8Q134.73-7.95 135.32-9.33 135.91-10.7 137.41-11.95 138.91-13.2 141.63-14 144.36-14.8 148.63-14.8L148.63-14.8 148.63-15.95Q148.63-17.8 147.75-19.03 146.86-20.25 144.18-20.25L144.18-20.25Q142.23-20.25 140.37-19.59 138.51-18.93 137.63-17.95L137.63-17.95 135.63-22.75Q137.13-23.78 139.65-24.64 142.16-25.5 145.23-25.5L145.23-25.5Q148.93-25.5 150.98-24.38 153.03-23.25 153.86-21.19 154.68-19.13 154.68-16.35L154.68-16.35 154.68 0 149.33 0 148.88-3.55Q146.28 0.7 141.53 0.7ZM144.18-4.1L144.18-4.1Q145.31-4.1 146.6-5.01 147.88-5.93 148.63-7.35L148.63-7.35 148.63-10.9Q148.38-10.95 148.1-10.95 147.81-10.95 147.43-10.95L147.43-10.95Q146.06-10.95 144.55-10.64 143.03-10.33 141.98-9.55 140.93-8.78 140.93-7.4L140.93-7.4Q140.93-5.6 141.73-4.85 142.53-4.1 144.18-4.1ZM167.48 0L161.58 0 161.58-38 167.48-38 167.48-19.35 167.28-13.5 174.93-24.9 182.03-24.9 173.33-13.45 182.88 0 175.33 0 167.28-12.05 167.48-5.95 167.48 0ZM196.83 0.65L196.83 0.65Q192.63 0.65 190.05-1.11 187.48-2.88 186.3-5.79 185.13-8.7 185.13-12.15L185.13-12.15Q185.13-15.78 186.47-18.81 187.8-21.85 190.39-23.68 192.98-25.5 196.73-25.5L196.73-25.5Q202.33-25.5 204.55-22.26 206.78-19.03 206.78-13.1L206.78-13.1Q206.78-12.58 206.75-11.78 206.73-10.98 206.68-10.4L206.68-10.4 191.68-10.4Q191.83-7.45 193.34-5.78 194.85-4.1 197.88-4.1L197.88-4.1Q199.43-4.1 201.2-4.79 202.98-5.48 203.83-6.45L203.83-6.45 205.83-1.7Q204.83-1.03 202.67-0.19 200.5 0.65 196.83 0.65ZM191.63-14.3L191.63-14.3 200.43-14.3Q200.43-16.93 199.97-18.31 199.5-19.7 198.7-20.23 197.9-20.75 196.88-20.75L196.88-20.75Q194.33-20.75 193.05-18.86 191.78-16.98 191.63-14.3ZM229.62 9.45L223.47 9.45 227.52-1.7 218.17-24.9 225.12-24.9 228.82-13.8 230.42-8.05 232.02-13.8 235.77-24.9 242.32-24.9 229.62 9.45ZM255.72 0.5L255.72 0.5Q250.22 0.5 247.22-2.95 244.22-6.4 244.22-12.5L244.22-12.5Q244.22-18.65 247.32-22.08 250.42-25.5 255.92-25.5L255.92-25.5Q261.45-25.5 264.33-21.96 267.22-18.43 267.22-12.5L267.22-12.5Q267.22-6.58 264.23-3.04 261.25 0.5 255.72 0.5ZM255.82-4.5L255.82-4.5Q260.57-4.5 260.57-12.5L260.57-12.5Q260.57-20.55 255.82-20.55L255.82-20.55Q253.47-20.55 252.17-18.69 250.87-16.82 250.87-12.5L250.87-12.5Q250.87-8.2 252.17-6.35 253.47-4.5 255.82-4.5ZM280.17 0.6L280.17 0.6Q276.39 0.6 274.61-1.81 272.82-4.23 272.82-8.45L272.82-8.45 272.82-24.9 279.07-24.9 279.07-9Q279.07-6.95 279.82-5.65 280.57-4.35 282.37-4.35L282.37-4.35Q284.14-4.35 285.33-5.65 286.52-6.95 286.52-9L286.52-9 286.52-24.9 292.77-24.9 292.77 0 287.12 0 286.99-3.23Q286.07-1.75 284.48-0.58 282.89 0.6 280.17 0.6ZM315.66 0L309.41 0 309.41-24.9 315.06-24.9 315.36-20.5Q315.76-21.48 316.6-22.58 317.44-23.68 318.93-24.44 320.41-25.2 322.76-25.2L322.76-25.2Q323.49-25.2 324.04-25.1 324.59-25 325.06-24.8L325.06-24.8 323.66-18.25Q322.86-19.05 321.21-19.05L321.21-19.05Q319.29-19.05 318.06-18.26 316.84-17.48 316.25-16.5 315.66-15.53 315.66-15L315.66-15 315.66 0ZM338.16 0.5L338.16 0.5Q332.66 0.5 329.66-2.95 326.66-6.4 326.66-12.5L326.66-12.5Q326.66-18.65 329.76-22.08 332.86-25.5 338.36-25.5L338.36-25.5Q343.89-25.5 346.77-21.96 349.66-18.43 349.66-12.5L349.66-12.5Q349.66-6.58 346.67-3.04 343.69 0.5 338.16 0.5ZM338.26-4.5L338.26-4.5Q343.01-4.5 343.01-12.5L343.01-12.5Q343.01-20.55 338.26-20.55L338.26-20.55Q335.91-20.55 334.61-18.69 333.31-16.82 333.31-12.5L333.31-12.5Q333.31-8.2 334.61-6.35 335.91-4.5 338.26-4.5ZM362.61 0.6L362.61 0.6Q358.83 0.6 357.05-1.81 355.26-4.23 355.26-8.45L355.26-8.45 355.26-24.9 361.51-24.9 361.51-9Q361.51-6.95 362.26-5.65 363.01-4.35 364.81-4.35L364.81-4.35Q366.58-4.35 367.77-5.65 368.96-6.95 368.96-9L368.96-9 368.96-24.9 375.21-24.9 375.21 0 369.56 0 369.43-3.23Q368.51-1.75 366.92-0.58 365.33 0.6 362.61 0.6ZM389.01 0L382.61 0 382.61-24.9 388.41-24.9 388.53-21.63Q389.51-23.13 391.26-24.31 393.01-25.5 395.86-25.5L395.86-25.5Q399.66-25.5 401.51-23.1 403.36-20.7 403.36-16.45L403.36-16.45 403.36 0 396.96 0 396.96-15.9Q396.96-17.98 396.08-19.26 395.21-20.55 393.41-20.55L393.41-20.55Q391.66-20.55 390.33-19.26 389.01-17.98 389.01-15.9L389.01-15.9 389.01 0ZM418.9 0.7L418.9 0.7Q415.88 0.7 413.65-0.93 411.43-2.55 410.22-5.5 409-8.45 409-12.4L409-12.4Q409-18.55 411.52-22.03 414.03-25.5 419-25.5L419-25.5Q421.55-25.5 423.31-24.24 425.08-22.98 425.6-20.6L425.6-20.6 425.15-24.25 425.15-38 431.05-38 431.05 0 425.6 0 425.6-5.1Q424.93-2.53 423.23-0.91 421.53 0.7 418.9 0.7ZM420.35-4.25L420.35-4.25Q422.15-4.25 423.58-6.14 425-8.03 425-12.3L425-12.3Q425-16.2 423.9-18.32 422.8-20.45 420.5-20.45L420.5-20.45Q419.33-20.45 418.17-19.73 417-19 416.23-17.24 415.45-15.48 415.45-12.4L415.45-12.4Q415.45-8.28 416.88-6.26 418.3-4.25 420.35-4.25ZM456.35 0.75L456.35 0.75Q452.12 0.75 450.64-1.45 449.15-3.65 449.15-8.1L449.15-8.1 449.15-19.65 445.9-19.65 445.9-24.9 449.4-24.9 449.75-30.15 455.2-32.5 455.2-24.9 461.35-24.9 461.35-19.65 455.2-19.65 455.2-8.25Q455.2-6.08 455.81-5.24 456.42-4.4 457.5-4.4L457.5-4.4Q458.6-4.4 459.82-4.98 461.05-5.55 461.75-6.15L461.75-6.15 462.95-1.1Q462.17-0.55 460.94-0.14 459.7 0.28 458.44 0.51 457.17 0.75 456.35 0.75ZM473.95 0L467.8 0 467.8-38.1 473.7-38.1 473.7-25.5 473.57-21.75Q474.57-23.2 476.37-24.35 478.17-25.5 481.15-25.5L481.15-25.5Q484.9-25.5 486.75-23.1 488.6-20.7 488.6-16.45L488.6-16.45 488.6 0 482.2 0 482.2-15.8Q482.2-17.88 481.21-19.16 480.22-20.45 478.45-20.45L478.45-20.45Q476.7-20.45 475.32-19.16 473.95-17.88 473.95-15.8L473.95-15.8 473.95 0ZM506.29 0.65L506.29 0.65Q502.09 0.65 499.52-1.11 496.94-2.88 495.77-5.79 494.59-8.7 494.59-12.15L494.59-12.15Q494.59-15.78 495.93-18.81 497.27-21.85 499.86-23.68 502.44-25.5 506.19-25.5L506.19-25.5Q511.79-25.5 514.02-22.26 516.24-19.03 516.24-13.1L516.24-13.1Q516.24-12.58 516.22-11.78 516.19-10.98 516.14-10.4L516.14-10.4 501.14-10.4Q501.29-7.45 502.81-5.78 504.32-4.1 507.34-4.1L507.34-4.1Q508.89-4.1 510.67-4.79 512.44-5.48 513.29-6.45L513.29-6.45 515.29-1.7Q514.29-1.03 512.13-0.19 509.97 0.65 506.29 0.65ZM501.09-14.3L501.09-14.3 509.89-14.3Q509.89-16.93 509.43-18.31 508.97-19.7 508.17-20.23 507.37-20.75 506.34-20.75L506.34-20.75Q503.79-20.75 502.52-18.86 501.24-16.98 501.09-14.3ZM541.19 0L536.19 0 528.24-24.9 534.59-24.9 537.59-13.05 538.89-7.8 539.99-13.05 543.24-24.9 548.44-24.9 551.89-13.05 553.19-7.8 554.34-13.05 557.24-24.9 563.39-24.9 555.54 0 550.49 0 546.49-13.55 545.69-17.6 544.89-13.55 541.19 0ZM577.28 0.5L577.28 0.5Q571.78 0.5 568.78-2.95 565.78-6.4 565.78-12.5L565.78-12.5Q565.78-18.65 568.88-22.08 571.98-25.5 577.48-25.5L577.48-25.5Q583.01-25.5 585.9-21.96 588.78-18.43 588.78-12.5L588.78-12.5Q588.78-6.58 585.8-3.04 582.81 0.5 577.28 0.5ZM577.38-4.5L577.38-4.5Q582.13-4.5 582.13-12.5L582.13-12.5Q582.13-20.55 577.38-20.55L577.38-20.55Q575.03-20.55 573.73-18.69 572.43-16.82 572.43-12.5L572.43-12.5Q572.43-8.2 573.73-6.35 575.03-4.5 577.38-4.5ZM600.58 0L594.33 0 594.33-24.9 599.98-24.9 600.28-20.5Q600.68-21.48 601.52-22.58 602.36-23.68 603.84-24.44 605.33-25.2 607.68-25.2L607.68-25.2Q608.41-25.2 608.96-25.1 609.51-25 609.98-24.8L609.98-24.8 608.58-18.25Q607.78-19.05 606.13-19.05L606.13-19.05Q604.21-19.05 602.98-18.26 601.76-17.48 601.17-16.5 600.58-15.53 600.58-15L600.58-15 600.58 0ZM619.88 0L613.78 0 613.78-38 619.88-38 619.88 0ZM634.73 0.7L634.73 0.7Q631.7 0.7 629.48-0.93 627.25-2.55 626.04-5.5 624.83-8.45 624.83-12.4L624.83-12.4Q624.83-18.55 627.34-22.03 629.85-25.5 634.83-25.5L634.83-25.5Q637.38-25.5 639.14-24.24 640.9-22.98 641.43-20.6L641.43-20.6 640.98-24.25 640.98-38 646.88-38 646.88 0 641.43 0 641.43-5.1Q640.75-2.53 639.05-0.91 637.35 0.7 634.73 0.7ZM636.18-4.25L636.18-4.25Q637.98-4.25 639.4-6.14 640.83-8.03 640.83-12.3L640.83-12.3Q640.83-16.2 639.73-18.32 638.63-20.45 636.33-20.45L636.33-20.45Q635.15-20.45 633.99-19.73 632.83-19 632.05-17.24 631.28-15.48 631.28-12.4L631.28-12.4Q631.28-8.28 632.7-6.26 634.13-4.25 636.18-4.25Z" opacity="1" transform="matrix(1,0,0,1,0,0)" fill="#6575a8" class="slogan-text-1" data-fill-palette-color="secondary" id="text-1"></path></svg></g></svg></g></svg></g></svg></g><g></g></svg></g><defs></defs></svg><rect width="395.52" height="141.48970479720953" fill="none" stroke="none" visibility="hidden"></rect></g></svg></g></svg>